<?xml version="1.0" standalone="no"?>
<!DOCTYPE svg PUBLIC "-//W3C//DTD SVG 20010904//EN"
 "http://www.w3.org/TR/2001/REC-SVG-20010904/DTD/svg10.dtd">
<svg version="1.0" xmlns="http://www.w3.org/2000/svg"
 width="317.000000pt" height="317.000000pt" viewBox="0 0 317.000000 317.000000"
 preserveAspectRatio="xMidYMid meet">
<metadata>
Created by potrace 1.11, written by Peter Selinger 2001-2013
</metadata>
<g transform="translate(0.000000,317.000000) scale(0.100000,-0.100000)"
fill="#000000" stroke="none">
<path d="M274 2220 c-75 -17 -143 -77 -183 -160 l-26 -55 -3 -323 c-3 -270 0
-332 13 -377 23 -80 69 -134 149 -175 l69 -35 406 0 c535 0 494 -25 499 310 4
261 0 295 -38 338 l-28 32 -350 5 -350 5 -7 -112 c-4 -61 -4 -117 0 -122 4 -7
94 -11 266 -11 l259 0 0 -100 0 -100 -303 0 c-229 0 -307 3 -320 13 -16 11
-18 39 -18 311 0 174 4 303 10 309 5 5 192 11 440 15 l431 5 0 87 c0 48 -3
102 -6 119 l-6 31 -437 -1 c-240 -1 -450 -4 -467 -9z"/>
<path d="M1939 2191 l-39 -39 0 -526 0 -526 38 0 c20 0 74 -3 120 -7 l82 -6 0
447 0 446 315 0 c173 0 318 -1 323 -2 4 -2 7 -46 7 -98 0 -79 -3 -99 -20 -122
-37 -50 -52 -53 -330 -58 l-260 -5 -3 -122 -3 -123 83 0 83 -1 205 -177 205
-177 125 -3 c69 -1 151 1 183 5 l58 8 -93 80 c-141 121 -293 258 -296 265 -1
4 18 13 43 20 65 18 155 79 193 131 61 82 75 138 76 290 1 132 0 137 -29 194
-34 66 -93 118 -153 135 -23 6 -198 10 -456 10 l-418 0 -39 -39z"/>
<path d="M1473 1940 c-39 -23 -53 -48 -53 -94 0 -52 16 -84 52 -106 39 -24 78
-25 118 -5 42 22 60 53 60 105 0 52 -18 83 -60 105 -39 20 -79 19 -117 -5z"/>
<path d="M1482 1325 c-70 -30 -85 -137 -27 -194 21 -22 35 -26 81 -26 50 0 58
3 85 33 54 60 34 158 -38 188 -40 17 -59 17 -101 -1z"/>
</g>
</svg>
